<?xml version="1.0" encoding="utf-8"?>
<!-- Generator: Adobe Illustrator 25.2.2, SVG Export Plug-In . SVG Version: 6.00 Build 0)  -->
<svg version="1.1" id="Ebene_1" xmlns="http://www.w3.org/2000/svg" xmlns:xlink="http://www.w3.org/1999/xlink" x="0px" y="0px"
	 viewBox="0 0 800 800" enable-background="new 0 0 800 800" xml:space="preserve">
<g>
	<path d="M336.57,482.88c-1.46-0.22-2.92-0.37-4.36-0.67c-15.48-3.15-26.24-12.03-32.08-26.71c-1.89-4.75-2.71-9.74-2.7-14.86
		c0.01-4.19,0-8.39,0-12.58c0-1.06,0.02-1.16-1-1.43c-1.54-0.41-3.11-0.67-4.67-0.98c-6.04-1.19-11.79-3.14-17-6.49
		c-3.82-2.46-7.01-5.53-9.27-9.52c-2.16-3.81-3.03-7.95-3.03-12.29c0-14.5,0.02-29,0.04-43.49c0-0.79,0.09-1.6,0.23-2.38
		c0.28-1.59,1.18-2.75,2.78-3.1c1.35-0.3,2.75-0.48,4.14-0.5c3.67-0.05,7.35,0.01,11.03,0.03c0.35,0,0.71,0,1.15,0
		c0.34-1.57,0.5-3.11,0.51-4.65c0.02-6.31,0.01-12.62,0.04-18.93c0-0.71,0.08-1.44,0.24-2.13c0.53-2.35,2.34-3.76,4.64-3.7
		c2.44,0.06,4.05,1.4,4.54,3.79c0.13,0.66,0.2,1.34,0.2,2.02c0.01,6.95,0.01,13.9,0.01,20.85c0,0.32,0.02,0.64,0,0.96
		c-0.04,0.52,0.15,0.82,0.7,0.91c1.14,0.18,2.27,0.47,3.42,0.58c4.63,0.43,9.25,0.42,13.84-0.35c1.14-0.19,1.14-0.21,1.14-1.32
		c0-5.47,0-10.94,0-16.42c0-1.8,0-3.59,0.03-5.39c0.01-0.63,0.07-1.28,0.19-1.9c0.42-2.2,1.83-3.46,4.09-3.71
		c1.98-0.22,3.79,0.82,4.64,2.7c0.57,1.26,0.71,2.61,0.71,3.97c0,7.03,0,14.06,0,21.09c0,0.47,0,0.95,0,1.59c0.52,0,0.95,0,1.38,0
		c3.44,0.02,6.87-0.02,10.31,0.09c1.3,0.04,2.61,0.33,3.86,0.7c1.87,0.56,3.16,1.86,3.71,3.76c0.29,0.99,0.6,2.02,0.61,3.04
		c0.09,5.38,0.08,10.77,0.12,16.16c0.03,4.15-0.05,8.31,0.12,12.45c0.3,7.27-0.32,14.37-3.59,21
		c-5.46,11.07-14.17,18.07-26.27,20.76c-0.7,0.16-1.42,0.21-2.13,0.33c-1.16,0.2-1.57,0.52-1.58,1.67
		c-0.05,4.15-0.1,8.29,0.01,12.44c0.06,2.34,0.3,4.7,0.68,7.02c1.22,7.31,4.92,13.23,10.43,18.08c4.76,4.19,10.32,6.62,16.58,7.41
		c2.53,0.32,5.09,0.43,7.64,0.48c3.79,0.08,7.59,0.02,11.39,0.02c16.26,0.01,32.53,0.01,48.79,0.04
		c11.91,0.02,23.81,0.08,35.72,0.12c6.59,0.02,13.19,0.17,19.78,0.04c9.9-0.2,19.4-2.38,28.33-6.68c20.17-9.74,33.34-25.42,39.39-47
		c2.11-7.52,2.79-15.24,2.26-23c-1.15-16.84-7.41-31.57-18.89-43.98c-10.57-11.43-23.61-18.6-38.84-21.76
		c-3.67-0.76-7.4-1.16-11.16-1.33c-11.63-0.54-22.73,1.6-33.26,6.52c-14.91,6.97-26.16,17.82-33.89,32.31
		c-3.71,6.96-6.15,14.36-7.39,22.14c-0.42,2.63-0.64,5.31-0.81,7.97c-0.67,10.41,1.13,20.43,5.15,30.03
		c5.2,12.43,13.23,22.7,24.01,30.8c1.21,0.91,2.12,1.96,2.26,3.5c0.17,1.87-0.52,3.39-2.13,4.38c-1.65,1.02-3.37,1-4.96-0.11
		c-1.5-1.05-2.96-2.19-4.35-3.38c-13.88-11.85-23.12-26.57-27.35-44.37c-1.56-6.56-2.04-13.23-1.83-19.96
		c0.34-11.08,2.87-21.63,7.52-31.67c3.87-8.37,9.03-15.87,15.44-22.51c8.92-9.23,19.42-16.01,31.53-20.31
		c6.04-2.15,12.26-3.57,18.64-4.17c15.71-1.46,30.76,1.06,44.85,8.24c19.45,9.9,32.92,25.17,40.29,45.74
		c2.06,5.76,3.37,11.71,3.97,17.81c0.12,1.23,0.27,2.45,0.41,3.68c0,3.36,0,6.71,0,10.07c-0.06,0.31-0.16,0.62-0.17,0.93
		c-0.19,3.71-0.74,7.38-1.54,11c-3.6,16.45-11.45,30.56-23.72,42.08c-14.28,13.41-31.5,21-51.1,22.28c-2.41,0.16-4.03,0.16-4.5,0.16
		C416.21,482.88,376.86,482.88,336.57,482.88z M301.68,358.29c-9.39,0-18.77,0-28.16,0c-1.39,0-1.43,0.04-1.46,1.37
		c-0.05,2.67-0.13,5.34-0.12,8.02c0.02,7.14,0.03,14.28,0.13,21.43c0.05,3.91,0.11,7.82,0.77,11.69c0.49,2.9,1.72,5.44,3.84,7.55
		c1.98,1.97,4.33,3.38,6.81,4.61c4.37,2.17,8.96,3.6,13.83,3.95c4.44,0.32,8.83-0.13,13.19-1.13c12.1-2.76,19.71-13.06,20.51-24.57
		c0.23-3.26,0.22-6.54,0.23-9.81c0.02-7.03-0.02-14.05-0.04-21.08c-0.01-2.04-0.01-2.04-2.08-2.04
		C319.97,358.29,310.83,358.29,301.68,358.29z"/>
	<path d="M410.12,401.09c0.08-11.41,3.8-21.43,11.57-29.84c6.66-7.19,14.83-11.76,24.46-13.64c1.79-0.35,3.64-0.54,5.46-0.61
		c5.52-0.2,11.03-0.13,16.36,1.63c16.76,5.54,27.31,16.81,30.86,34.17c1.93,9.45,1.02,18.79-3.07,27.62
		c-5.88,12.7-15.81,20.69-29.25,24.39c-4.82,1.33-9.76,1.74-14.72,1.4c-19.64-1.37-36.27-14.68-40.63-34.77
		C410.44,408.03,410.05,404.59,410.12,401.09z M420.45,407.03c0.4,1.71,0.69,3.48,1.21,5.18c5.03,16.24,22.31,26.83,39.07,23.65
		c12.38-2.35,21.25-9.45,26.48-20.96c1.14-2.51,1.78-5.18,1.96-7.97c-0.95-0.43-1.87-0.79-2.74-1.25c-1.13-0.59-2-1.47-2.39-2.72
		c-0.76-2.45,0.17-4.56,2.53-5.62c0.86-0.39,1.79-0.64,2.72-0.96c0-0.3,0.03-0.58-0.01-0.85c-0.11-0.71-0.21-1.42-0.37-2.12
		c-1.81-7.79-5.9-14.18-12.1-19.17c-7.73-6.23-16.64-8.63-26.45-7.46c-7.89,0.94-14.58,4.53-20.2,10.07
		c-4.54,4.47-7.71,9.75-9.02,16.04c-0.25,1.2-0.55,2.4-0.3,3.68c0.68,0.18,1.35,0.31,1.98,0.53c1.52,0.53,2.63,1.48,3.01,3.12
		c0.54,2.31-0.22,4.2-2.3,5.38C422.61,406.13,421.6,406.51,420.45,407.03z"/>
	<path d="M461.43,401.61c0.08-2.23,0.09-4.46,0.26-6.69c0.14-1.83,1.11-3.16,2.9-3.72c1.96-0.6,3.84-0.37,5.29,1.19
		c0.51,0.55,0.91,1.38,0.97,2.12c0.43,4.61,0.42,9.24,0.04,13.86c-0.16,1.93-1.87,3.6-3.85,3.87c-2.25,0.3-4.26-0.75-5.02-2.8
		c-0.35-0.95-0.48-2.02-0.53-3.04c-0.09-1.59-0.02-3.19-0.02-4.79C461.46,401.61,461.45,401.61,461.43,401.61z"/>
	<path d="M448.34,401.45c0,1.68,0.05,3.36-0.02,5.03c-0.04,0.94-0.16,1.92-0.45,2.81c-0.71,2.17-2.82,3.32-5.14,2.93
		c-2.1-0.36-3.72-2.19-3.79-4.32c-0.08-2.43-0.17-4.86-0.18-7.3c-0.01-1.75,0.12-3.51,0.19-5.26c0.12-2.92,2.01-4.6,4.94-4.38
		c2.69,0.2,4.4,2.08,4.46,4.97C448.38,397.77,448.34,399.61,448.34,401.45z"/>
</g>
</svg>
